<!DOCTYPE svg PUBLIC "-//W3C//DTD SVG 1.1//EN" "http://www.w3.org/Graphics/SVG/1.1/DTD/svg11.dtd">
<!-- Uploaded to: SVG Repo, www.svgrepo.com, Transformed by: SVG Repo Mixer Tools -->
<svg width="800px" height="800px" viewBox="-6.72 -6.72 37.44 37.44" fill="none" xmlns="http://www.w3.org/2000/svg" stroke="#656D4A">
<g id="SVGRepo_bgCarrier" stroke-width="0" transform="translate(1.5600000000000005,1.5600000000000005), scale(0.87)">
<path transform="translate(-6.72, -6.72), scale(1.17)" d="M16,27.712408365060885C18.860396478699684,27.494542723669213,21.908092384107388,27.503549749706096,24.083506453849516,25.633547857133642C26.244661485124826,23.775803138627538,26.4272092061921,20.70453583710978,27.30613030126686,17.993575819518874C28.393515609223286,14.639625038152216,31.394003208049188,11.178333259954776,29.787605507244784,8.039722248911861C28.18441783941606,4.907383062609627,23.71810803907222,4.979689489956191,20.274684572658195,4.2554006613305795C17.39723271631769,3.650158159273217,14.498812453912715,3.2794988971452725,11.719444252273913,4.2392697404058755C8.899066222258389,5.213202088982648,6.5811839892275605,7.129612377302483,4.870922969688678,9.574624380717669C3.004233143040924,12.243269096737288,1.3715714726001664,15.279040379227661,1.733292697050942,18.51560542338041C2.109114805365621,21.878340635940795,3.968727201513106,25.115680575235242,6.81269780803855,26.94900039351871C9.475843611174167,28.665754416455652,12.840619800412995,27.95304647194881,16,27.712408365060885" fill="#A4AC86" strokewidth="0"/>
</g>
<g id="SVGRepo_tracerCarrier" stroke-linecap="round" stroke-linejoin="round"/>
<g id="SVGRepo_iconCarrier"> <path d="M7 8L3 11.6923L7 16M17 8L21 11.6923L17 16M14 4L10 20" stroke="#656D4A" stroke-width="2" stroke-linecap="round" stroke-linejoin="round"/> </g>
</svg>