<!DOCTYPE svg PUBLIC "-//W3C//DTD SVG 1.1//EN" "http://www.w3.org/Graphics/SVG/1.1/DTD/svg11.dtd">
<!-- Uploaded to: SVG Repo, www.svgrepo.com, Transformed by: SVG Repo Mixer Tools -->
<svg width="800px" height="800px" viewBox="-8.96 -8.96 49.92 49.92" version="1.1" xmlns="http://www.w3.org/2000/svg" xmlns:xlink="http://www.w3.org/1999/xlink" xmlns:sketch="http://www.bohemiancoding.com/sketch/ns" fill="#656D4A" stroke="#656D4A">
<g id="SVGRepo_bgCarrier" stroke-width="0" transform="translate(0,0), scale(1)">
<path transform="translate(-8.96, -8.96), scale(1.56)" d="M16,26.37694575856714C18.43184219745335,26.273474831773342,20.82398624965402,26.63827686736781,23.0974214384393,25.768762549832367C25.993753365198074,24.66101068117348,29.831141375015733,23.75187144590667,30.669406922991936,20.766379241335436C31.512908131997115,17.762240170952374,27.807872082909,15.44423502562648,26.828153060252482,12.48171979689935C25.856905508596984,9.544820955391275,27.266861270772697,5.718034472983687,24.997630235476123,3.615824416805877C22.723416395356367,1.508998302481345,19.099713815089167,2.4001556118909217,16,2.4505454038872436C12.95688364416092,2.500015132171475,9.542037801319868,1.9463937290859383,7.212428526948383,3.904945499643512C4.913844449721523,5.8374137310136405,4.788657740013937,9.24862861199603,4.375960976373454,12.223120771443812C4.029971931579151,14.716820242012012,4.344548886587006,17.141485038622513,5.040217971654524,19.561049047428874C5.761064078567337,22.06817971287328,6.234518272208559,25.0143276639243,8.44977284386491,26.391996153154818C10.640554183044788,27.754444720646394,13.422450514737381,26.4866162932656,16,26.37694575856714" fill="#A4AC86" strokewidth="0"/>
</g>
<g id="SVGRepo_tracerCarrier" stroke-linecap="round" stroke-linejoin="round"/>
<g id="SVGRepo_iconCarrier"> <title>layers</title> <desc>Created with Sketch Beta.</desc> <defs> </defs> <g id="Page-1" stroke="none" stroke-width="1" fill="none" fill-rule="evenodd" sketch:type="MSPage"> <g id="Icon-Set" sketch:type="MSLayerGroup" transform="translate(-152.000000, -204.000000)" fill="#656D4A"> <path d="M152.915,221.057 L166.492,227.159 C167.691,227.725 168.209,227.725 169.509,227.159 L183.085,221.057 C183.755,220.744 184,219.275 184,218.484 C183.127,218.921 181.891,219.544 181.867,219.55 L168,225.942 L154.133,219.55 C154.181,219.579 152.906,219.002 152,218.484 C152,219.258 152.194,220.674 152.915,221.057 L152.915,221.057 Z M168,232.335 L154.133,225.942 C154.181,225.972 152.906,225.395 152,224.877 C152,225.65 152.194,227.066 152.915,227.449 L166.492,233.552 C167.691,234.118 168.209,234.118 169.509,233.552 L183.085,227.449 C183.755,227.137 184,225.668 184,224.877 C183.127,225.313 181.891,225.937 181.867,225.942 L168,232.335 L168,232.335 Z M168,205.698 L181.867,213.156 L168,219 L154.133,213.156 L168,205.698 L168,205.698 Z M152.915,214.663 L166.492,220.767 C167.691,221.332 168.209,221.332 169.509,220.767 L183.085,214.663 C184.085,214.197 184.118,212.216 183.085,211.649 L169.509,204.481 C168.442,203.849 167.691,203.882 166.492,204.481 L152.915,211.649 C151.882,212.315 151.849,214.098 152.915,214.663 L152.915,214.663 Z M168,205.698 C168.1,205.815 168.074,205.723 168,205.698 L168,205.698 Z" id="layers" sketch:type="MSShapeGroup"> </path> </g> </g> </g>
</svg>