<svg xmlns="http://www.w3.org/2000/svg" xmlns:xlink="http://www.w3.org/1999/xlink" xml:space="preserve" version="1.0" style="shape-rendering:geometricPrecision;text-rendering:geometricPrecision;image-rendering:optimizeQuality;" viewBox="0 0 3649 4561.25" x="0px" y="0px" fill-rule="evenodd" clip-rule="evenodd"><g><path class="fil0" d="M215 0c118,0 214,96 214,215 0,118 -96,214 -214,214 -119,0 -215,-96 -215,-214 0,-119 96,-215 215,-215zm3434 3435c0,118 -96,214 -214,214 -119,0 -215,-96 -215,-214 0,-119 96,-215 215,-215 118,0 214,96 214,215zm-805 0c0,118 -96,214 -214,214 -119,0 -215,-96 -215,-214 0,-119 96,-215 215,-215 118,0 214,96 214,215zm805 -805c0,118 -96,214 -214,214 -119,0 -215,-96 -215,-214 0,-119 96,-215 215,-215 118,0 214,96 214,215zm-805 0c0,118 -96,214 -214,214 -119,0 -215,-96 -215,-214 0,-119 96,-215 215,-215 118,0 214,96 214,215zm-2415 805c0,118 -96,214 -214,214 -119,0 -215,-96 -215,-214 0,-119 96,-215 215,-215 118,0 214,96 214,215zm1610 0c0,118 -96,214 -214,214 -119,0 -215,-96 -215,-214 0,-119 96,-215 215,-215 118,0 214,96 214,215zm-805 0c0,118 -96,214 -214,214 -119,0 -215,-96 -215,-214 0,-119 96,-215 215,-215 118,0 214,96 214,215zm-805 -805c0,118 -96,214 -214,214 -119,0 -215,-96 -215,-214 0,-119 96,-215 215,-215 118,0 214,96 214,215zm1610 0c0,118 -96,214 -214,214 -119,0 -215,-96 -215,-214 0,-119 96,-215 215,-215 118,0 214,96 214,215zm-805 0c0,118 -96,214 -214,214 -119,0 -215,-96 -215,-214 0,-119 96,-215 215,-215 118,0 214,96 214,215zm2415 -805c0,118 -96,214 -214,214 -119,0 -215,-96 -215,-214 0,-119 96,-215 215,-215 118,0 214,96 214,215zm-805 0c0,118 -96,214 -214,214 -119,0 -215,-96 -215,-214 0,-119 96,-215 215,-215 118,0 214,96 214,215zm805 -805c0,118 -96,214 -214,214 -119,0 -215,-96 -215,-214 0,-119 96,-215 215,-215 118,0 214,96 214,215zm-1019 -1020c118,0 214,96 214,215 0,118 -96,214 -214,214 -119,0 -215,-96 -215,-214 0,-119 96,-215 215,-215zm805 0c118,0 214,96 214,215 0,118 -96,214 -214,214 -119,0 -215,-96 -215,-214 0,-119 96,-215 215,-215zm-591 1020c0,118 -96,214 -214,214 -119,0 -215,-96 -215,-214 0,-119 96,-215 215,-215 118,0 214,96 214,215zm-2415 805c0,118 -96,214 -214,214 -119,0 -215,-96 -215,-214 0,-119 96,-215 215,-215 118,0 214,96 214,215zm1610 0c0,118 -96,214 -214,214 -119,0 -215,-96 -215,-214 0,-119 96,-215 215,-215 118,0 214,96 214,215zm-805 0c0,118 -96,214 -214,214 -119,0 -215,-96 -215,-214 0,-119 96,-215 215,-215 118,0 214,96 214,215zm-805 -805c0,118 -96,214 -214,214 -119,0 -215,-96 -215,-214 0,-119 96,-215 215,-215 118,0 214,96 214,215zm1610 0c0,118 -96,214 -214,214 -119,0 -215,-96 -215,-214 0,-119 96,-215 215,-215 118,0 214,96 214,215zm-1019 -1020c118,0 214,96 214,215 0,118 -96,214 -214,214 -119,0 -215,-96 -215,-214 0,-119 96,-215 215,-215zm805 0c118,0 214,96 214,215 0,118 -96,214 -214,214 -119,0 -215,-96 -215,-214 0,-119 96,-215 215,-215zm-591 1020c0,118 -96,214 -214,214 -119,0 -215,-96 -215,-214 0,-119 96,-215 215,-215 118,0 214,96 214,215z"/></g><text x="0" y="3664" fill="#000000" font-size="5px" font-weight="bold" font-family="'Helvetica Neue', Helvetica, Arial-Unicode, Arial, Sans-serif">Created by Ioannis Malikoutsakis</text><text x="0" y="3669" fill="#000000" font-size="5px" font-weight="bold" font-family="'Helvetica Neue', Helvetica, Arial-Unicode, Arial, Sans-serif">from the Noun Project</text></svg>