<svg xmlns="http://www.w3.org/2000/svg" xmlns:xlink="http://www.w3.org/1999/xlink" version="1.1" x="0px" y="0px" viewBox="0 0 100 125" enable-background="new 0 0 100 100" xml:space="preserve"><g><path d="M12.2,2.5c-5.4,0-9.7,4.3-9.7,9.7s4.3,9.7,9.7,9.7c5.4,0,9.7-4.3,9.7-9.7S17.5,2.5,12.2,2.5z M12.2,18.4   c-3.4,0-6.2-2.8-6.2-6.2S8.8,6,12.2,6s6.2,2.8,6.2,6.2S15.6,18.4,12.2,18.4z"/><path d="M12.2,27.7c-5.4,0-9.7,4.3-9.7,9.7s4.3,9.7,9.7,9.7c5.4,0,9.7-4.3,9.7-9.7S17.5,27.7,12.2,27.7z M12.2,43.6   c-3.4,0-6.2-2.8-6.2-6.2s2.8-6.2,6.2-6.2s6.2,2.8,6.2,6.2S15.6,43.6,12.2,43.6z"/><path d="M12.2,52.9c-5.4,0-9.7,4.3-9.7,9.7s4.3,9.7,9.7,9.7c5.4,0,9.7-4.3,9.7-9.7S17.5,52.9,12.2,52.9z M12.2,68.8   C8.8,68.8,6,66,6,62.6s2.8-6.2,6.2-6.2s6.2,2.8,6.2,6.2S15.6,68.8,12.2,68.8z"/><path d="M12.2,78.1c-5.4,0-9.7,4.3-9.7,9.7c0,5.4,4.3,9.7,9.7,9.7c5.4,0,9.7-4.3,9.7-9.7C21.9,82.5,17.5,78.1,12.2,78.1z M12.2,94   C8.8,94,6,91.2,6,87.8c0-3.4,2.8-6.2,6.2-6.2s6.2,2.8,6.2,6.2C18.4,91.2,15.6,94,12.2,94z"/><path d="M37.4,2.5c-5.4,0-9.7,4.3-9.7,9.7s4.3,9.7,9.7,9.7c5.4,0,9.7-4.3,9.7-9.7S42.8,2.5,37.4,2.5z M37.4,18.4   c-3.4,0-6.2-2.8-6.2-6.2S34,6,37.4,6s6.2,2.8,6.2,6.2S40.8,18.4,37.4,18.4z"/><path d="M37.4,27.7c-5.4,0-9.7,4.3-9.7,9.7s4.3,9.7,9.7,9.7c5.4,0,9.7-4.3,9.7-9.7S42.8,27.7,37.4,27.7z M37.4,43.6   c-3.4,0-6.2-2.8-6.2-6.2s2.8-6.2,6.2-6.2s6.2,2.8,6.2,6.2S40.8,43.6,37.4,43.6z"/><path d="M37.4,52.9c-5.4,0-9.7,4.3-9.7,9.7s4.3,9.7,9.7,9.7c5.4,0,9.7-4.3,9.7-9.7S42.8,52.9,37.4,52.9z M37.4,68.8   c-3.4,0-6.2-2.8-6.2-6.2s2.8-6.2,6.2-6.2s6.2,2.8,6.2,6.2S40.8,68.8,37.4,68.8z"/><path d="M37.4,78.1c-5.4,0-9.7,4.3-9.7,9.7c0,5.4,4.3,9.7,9.7,9.7c5.4,0,9.7-4.3,9.7-9.7C47.1,82.5,42.8,78.1,37.4,78.1z M37.4,94   c-3.4,0-6.2-2.8-6.2-6.2c0-3.4,2.8-6.2,6.2-6.2s6.2,2.8,6.2,6.2C43.6,91.2,40.8,94,37.4,94z"/><path d="M62.6,2.5c-5.4,0-9.7,4.3-9.7,9.7s4.3,9.7,9.7,9.7s9.7-4.3,9.7-9.7S68,2.5,62.6,2.5z M62.6,18.4c-3.4,0-6.2-2.8-6.2-6.2   S59.2,6,62.6,6c3.4,0,6.2,2.8,6.2,6.2S66,18.4,62.6,18.4z"/><path d="M62.6,27.7c-5.4,0-9.7,4.3-9.7,9.7s4.3,9.7,9.7,9.7s9.7-4.3,9.7-9.7S68,27.7,62.6,27.7z M62.6,43.6c-3.4,0-6.2-2.8-6.2-6.2   s2.8-6.2,6.2-6.2c3.4,0,6.2,2.8,6.2,6.2S66,43.6,62.6,43.6z"/><path d="M62.6,52.9c-5.4,0-9.7,4.3-9.7,9.7s4.3,9.7,9.7,9.7s9.7-4.3,9.7-9.7S68,52.9,62.6,52.9z M62.6,68.8c-3.4,0-6.2-2.8-6.2-6.2   s2.8-6.2,6.2-6.2c3.4,0,6.2,2.8,6.2,6.2S66,68.8,62.6,68.8z"/><path d="M62.6,78.1c-5.4,0-9.7,4.3-9.7,9.7c0,5.4,4.3,9.7,9.7,9.7s9.7-4.3,9.7-9.7C72.3,82.5,68,78.1,62.6,78.1z M62.6,94   c-3.4,0-6.2-2.8-6.2-6.2c0-3.4,2.8-6.2,6.2-6.2c3.4,0,6.2,2.8,6.2,6.2C68.8,91.2,66,94,62.6,94z"/><path d="M87.8,21.9c5.4,0,9.7-4.3,9.7-9.7s-4.3-9.7-9.7-9.7c-5.4,0-9.7,4.3-9.7,9.7S82.4,21.9,87.8,21.9z M87.8,6   c3.4,0,6.2,2.8,6.2,6.2s-2.8,6.2-6.2,6.2c-3.4,0-6.2-2.8-6.2-6.2S84.4,6,87.8,6z"/><path d="M87.8,27.7c-5.4,0-9.7,4.3-9.7,9.7s4.3,9.7,9.7,9.7c5.4,0,9.7-4.3,9.7-9.7S93.2,27.7,87.8,27.7z M87.8,43.6   c-3.4,0-6.2-2.8-6.2-6.2s2.8-6.2,6.2-6.2c3.4,0,6.2,2.8,6.2,6.2S91.2,43.6,87.8,43.6z"/><path d="M87.8,52.9c-5.4,0-9.7,4.3-9.7,9.7s4.3,9.7,9.7,9.7c5.4,0,9.7-4.3,9.7-9.7S93.2,52.9,87.8,52.9z M87.8,68.8   c-3.4,0-6.2-2.8-6.2-6.2s2.8-6.2,6.2-6.2c3.4,0,6.2,2.8,6.2,6.2S91.2,68.8,87.8,68.8z"/><path d="M87.8,78.1c-5.4,0-9.7,4.3-9.7,9.7c0,5.4,4.3,9.7,9.7,9.7c5.4,0,9.7-4.3,9.7-9.7C97.5,82.5,93.2,78.1,87.8,78.1z M87.8,94   c-3.4,0-6.2-2.8-6.2-6.2c0-3.4,2.8-6.2,6.2-6.2c3.4,0,6.2,2.8,6.2,6.2C94,91.2,91.2,94,87.8,94z"/></g><text x="0" y="115" fill="#000000" font-size="5px" font-weight="bold" font-family="'Helvetica Neue', Helvetica, Arial-Unicode, Arial, Sans-serif">Created by Adrien Coquet</text><text x="0" y="120" fill="#000000" font-size="5px" font-weight="bold" font-family="'Helvetica Neue', Helvetica, Arial-Unicode, Arial, Sans-serif">from the Noun Project</text></svg>